
<svg viewBox="0 0 641 85" version="1.1" xmlns="http://www.w3.org/2000/svg" xmlns:xlink="http://www.w3.org/1999/xlink">
<defs>
<style>
svg g { transition: 1s; }
@media all and (max-width: 90rem) {
#logo { opacity: 1; padding:2em; }
}
</style>
</defs>
    <g id="caremark-logo" stroke="none" stroke-width="1">
        <g id="logo" transform="translate(-10.000000, -7.000000)">
            <path d="M642.601279,28.0774145 L644.921478,28.0774145 L645.960568,31.6773145 C646.281595,32.7162857 646.761636,34.7962279 646.761636,34.7962279 L646.839643,34.7962279 C646.839643,34.7962279 647.320684,32.7162857 647.640712,31.6773145 L648.679801,28.0774145 L651,28.0774145 L651,36.3131857 L649.558876,36.3131857 L649.558876,33.3542679 C649.558876,31.8373101 649.640883,29.5953724 649.640883,29.5953724 L649.558876,29.5953724 C649.558876,29.5953724 649.079835,31.4363212 648.519787,33.1962723 L647.560705,36.3131857 L646.040574,36.3131857 L645.081492,33.1962723 C644.521444,31.4363212 644.042403,29.5953724 644.042403,29.5953724 L643.960396,29.5953724 C643.960396,29.5953724 644.042403,31.8373101 644.042403,33.3542679 L644.042403,36.3131857 L642.601279,36.3131857 L642.601279,28.0774145 Z M634.364573,28.0774145 L641.081149,28.0774145 L641.081149,29.4363768 L638.522929,29.4363768 L638.522929,36.3131857 L636.922792,36.3131857 L636.922792,29.4363768 L634.364573,29.4363768 L634.364573,28.0774145 Z M611.332597,56.5476237 L605.89313,62.3064637 L605.89313,76.8630594 L596.853354,76.8630594 L596.853354,19.6796478 L605.89313,19.6796478 L605.89313,52.2307436 L621.412461,35.6752035 L632.127381,35.6752035 L617.570132,50.9497792 L633.246477,76.8630594 L623.091605,76.8630594 L611.332597,56.5476237 Z M578.702797,42.4720147 L578.945818,42.4720147 C581.42403,38.0731369 584.783319,35.3542124 589.899758,35.3542124 C591.100861,35.3542124 591.819922,35.4362101 592.459977,35.6752035 L592.459977,43.9109747 L592.219957,43.9109747 C591.660909,43.7529791 590.938847,43.6729813 590.061772,43.6729813 C583.821236,43.6729813 578.945818,47.9108636 578.945818,55.7486459 L578.945818,76.8630594 L569.906042,76.8630594 L569.906042,35.6752035 L578.702797,35.6752035 L578.702797,42.4720147 Z M552.314533,62.0684703 L552.314533,55.5906503 C550.314361,56.787617 547.193093,57.5905947 544.233839,58.226577 C538.317332,59.5085414 534.79903,60.6275103 534.79903,65.4243771 C534.79903,69.9062526 537.83429,71.2652149 541.67662,71.2652149 C548.794231,71.2652149 552.314533,66.3853504 552.314533,62.0684703 L552.314533,62.0684703 Z M552.232526,71.5862059 C549.911327,74.7831171 546.314018,77.7440349 539.436428,77.7440349 C531.439742,77.7440349 525.601241,73.6641482 525.601241,65.6663704 C525.601241,56.3086303 533.036879,53.7487014 542.475689,52.3887392 C548.712224,51.4287659 552.152519,50.8717813 552.152519,47.1918836 C552.152519,43.6729813 549.353279,41.5130413 544.395853,41.5130413 C538.87538,41.5130413 536.237153,43.6729813 535.996133,48.471848 L527.439399,48.471848 C527.679419,40.9540568 532.876865,34.7962279 544.313846,34.7962279 C555.4318,34.7962279 561.112288,39.3541013 561.112288,49.0298325 L561.112288,67.0253326 C561.112288,69.9842504 561.752343,71.2652149 564.629589,70.7052304 L564.87161,70.7052304 L564.87161,76.5430682 C563.990535,77.021055 562.791432,77.4240438 560.713253,77.4240438 C555.673821,77.4240438 553.032594,75.7440904 552.314533,71.5862059 L552.232526,71.5862059 Z M462.099792,35.6752035 L470.898547,35.6752035 L470.898547,41.3540457 L471.139568,41.3540457 C473.455767,37.5151524 477.618124,34.6342324 483.134597,34.6342324 C488.254036,34.6342324 492.332386,37.4321547 494.252551,41.9150301 L494.410565,41.9150301 C497.129798,37.3541568 501.691189,34.6342324 506.888635,34.6342324 C514.967328,34.6342324 520.006761,39.9150857 520.006761,48.7118413 L520.006761,76.8630594 L510.888979,76.8630594 L510.888979,49.910808 C510.888979,45.0319436 508.089738,42.3930169 504.089395,42.3930169 C499.209976,42.3930169 495.531661,46.3929058 495.531661,52.2307436 L495.531661,76.8630594 L486.493885,76.8630594 L486.493885,49.910808 C486.493885,45.0319436 483.935666,42.3930169 479.857316,42.3930169 C475.135911,42.3930169 471.139568,46.3929058 471.139568,52.2307436 L471.139568,76.8630594 L462.099792,76.8630594 L462.099792,35.6752035 Z M425.71167,52.3087414 L446.666468,52.3087414 C446.346441,45.8309214 442.508111,41.6730369 436.589604,41.6730369 C430.030041,41.6730369 426.670753,46.0729146 425.71167,52.3087414 L425.71167,52.3087414 Z M416.515881,56.3086303 C416.515881,44.150968 424.590574,34.6342324 436.509597,34.6342324 C449.307695,34.6342324 456.185285,44.4719591 456.185285,58.7095636 L425.551657,58.7095636 C426.191711,65.9063637 430.188054,70.863226 437.229659,70.863226 C441.867056,70.863226 444.986324,68.7832838 446.428448,65.1853837 L455.304209,65.1853837 C453.624065,72.5431794 447.145509,78.064026 437.229659,78.064026 C424.033526,78.064026 416.515881,68.3852949 416.515881,56.3086303 L416.515881,56.3086303 Z M402.117646,42.4720147 L402.359667,42.4720147 C404.838879,38.0731369 408.198168,35.3542124 413.315607,35.3542124 C414.51771,35.3542124 415.233771,35.4362101 415.874826,35.6752035 L415.874826,43.9109747 L415.636806,43.9109747 C415.075758,43.7529791 414.354696,43.6729813 413.477621,43.6729813 C407.237085,43.6729813 402.359667,47.9108636 402.359667,55.7486459 L402.359667,76.8630594 L393.319891,76.8630594 L393.319891,35.6752035 L402.117646,35.6752035 L402.117646,42.4720147 Z M375.726382,62.0684703 L375.726382,55.5906503 C373.73021,56.787617 370.610943,57.5905947 367.651689,58.226577 C361.731181,59.5085414 358.211879,60.6275103 358.211879,65.4243771 C358.211879,69.9062526 361.25314,71.2652149 365.091469,71.2652149 C372.20908,71.2652149 375.726382,66.3853504 375.726382,62.0684703 L375.726382,62.0684703 Z M375.650375,71.5862059 C373.330176,74.7831171 369.729867,77.7440349 362.852277,77.7440349 C354.851591,77.7440349 349.01409,73.6641482 349.01409,65.6663704 C349.01409,56.3086303 356.453728,53.7487014 365.891538,52.3887392 C372.131073,51.4287659 375.568368,50.8717813 375.568368,47.1918836 C375.568368,43.6729813 372.769128,41.5130413 367.809702,41.5130413 C362.294229,41.5130413 359.651002,43.6729813 359.412982,48.471848 L350.855248,48.471848 C351.094268,40.9540568 356.291714,34.7962279 367.729695,34.7962279 C378.84965,34.7962279 384.526137,39.3541013 384.526137,49.0298325 L384.526137,67.0253326 C384.526137,69.9842504 385.167192,71.2652149 388.048439,70.7052304 L388.284459,70.7052304 L388.284459,76.5430682 C387.407384,77.021055 386.206281,77.4240438 384.126102,77.4240438 C379.08667,77.4240438 376.449444,75.7440904 375.726382,71.5862059 L375.650375,71.5862059 Z M306.867473,56.3086303 C306.867473,44.150968 314.706146,34.6342324 327.10521,34.6342324 C337.419095,34.6342324 343.897651,40.5540679 345.339774,49.3498236 L336.380006,49.3498236 C335.580937,44.9519458 332.302656,41.993028 327.422237,41.993028 C319.903592,41.993028 316.065263,47.9108636 316.065263,56.3086303 C316.065263,64.6253993 319.825585,70.6252326 327.34423,70.6252326 C332.70369,70.6252326 336.140985,67.7443127 336.78204,62.3874615 L345.577795,62.3874615 C344.860733,71.5862059 338.141157,78.064026 327.504244,78.064026 C314.788153,78.064026 306.867473,68.4652926 306.867473,56.3086303 L306.867473,56.3086303 Z M34.3930953,7.09199744 C31.8068734,7.09199744 29.2226516,8.07797006 27.2494823,10.0579151 L12.9512555,24.3545179 C9.01391772,28.2924085 9.01391772,34.7022305 12.9652567,38.6491209 L53.3167189,79 L93.667181,38.6491209 C97.6175199,34.7042304 97.607519,28.3024083 93.6591803,24.3545179 L79.3709543,10.0659148 C77.3987851,8.08196995 74.8145634,7.09399739 72.234342,7.09399739 C69.6381193,7.09399739 67.047897,8.08996972 65.065727,10.0799144 L53.3167189,21.8295881 L41.5497093,10.0639149 C39.57654,8.08196995 36.9853177,7.09199744 34.3930953,7.09199744 L34.3930953,7.09199744 Z M167.394507,8.91194689 L189.699421,8.91194689 L201.170405,52.9677231 L213.457459,8.91194689 L234.941302,8.91194689 L212.002334,77.0880531 L190.244467,77.0880531 L167.394507,8.91194689 Z M172.037905,50.6017888 C170.853804,68.5332907 159.020788,79 139.447109,79 C117.691242,79 104.401102,65.1663843 104.401102,43.0459987 C104.401102,20.7436182 117.78325,7 138.99207,7 C158.747765,7 170.400765,17.0137218 171.673874,34.6712314 L150.827085,34.6712314 C150.190031,27.7514236 146.273695,24.1105247 139.265093,24.1105247 C130.709359,24.1105247 126.427992,30.3933502 126.427992,43.0459987 C126.427992,55.4266548 131.07339,61.8894753 139.904148,61.8894753 C146.550718,61.8894753 150.735077,57.8815866 151.375132,50.6017888 L172.037905,50.6017888 Z M252.419802,55.7896447 C253.510896,60.8875031 256.425146,62.7074526 262.431661,62.7074526 C267.712114,62.7074526 270.626364,60.7955057 270.626364,57.7915891 C270.626364,53.513708 266.714028,53.1487181 258.609333,51.0557762 C249.141521,48.5998444 243.043997,46.5049026 240.220755,44.5009583 C234.941302,40.7700619 232.392084,35.4892086 232.392084,28.7553957 C232.392084,15.5567623 242.771974,7 260.884528,7 C278.455036,7 288.832926,14.7377851 290.016028,28.4814033 L269.350255,28.4814033 C268.624192,24.3845171 265.80095,22.4735702 260.521497,22.4735702 C255.877099,22.4735702 253.602903,24.0205272 253.602903,27.1164412 C253.602903,30.75934 257.152208,31.3953224 263.70777,33.1242743 C272.172497,35.3112136 278.910075,36.6751757 283.189442,39.5870948 C289.195957,43.5909836 291.926192,48.506847 291.926192,55.5176523 C291.926192,70.3532402 281.277278,79 261.523583,79 C243.225013,79 232.482091,70.3532402 231.116974,55.7896447 L252.419802,55.7896447 Z" id="Fill-1"></path>
        </g>
    </g>
</svg>