<svg version="1.1" id="warning" xmlns="http://www.w3.org/2000/svg" xmlns:xlink="http://www.w3.org/1999/xlink"
            x="0px" y="0px" viewBox="0 0 20 20" style="" xml:space="preserve">

            <g>
              <g transform="translate(-169 -247)">
                <g transform="translate(149 210)">
                  <g transform="translate(18 35)">
                    <g>
                      <path
                        d="M12,22C6.4772,22,2,17.5228004,2,12S6.4772,2,12,2s10,4.4772,10,10S17.5228004,22,12,22z M12,20
          						c4.4183006,0,8-3.5816994,8-8s-3.5816994-8-8-8s-8,3.5817003-8,8S7.5817003,20,12,20z M11.0010004,7h2v7h-2V7z
          						 M12.0010004,17.5c-0.5522804,0-1-0.4477196-1-1s0.4477196-1,1-1s1,0.4477196,1,1S12.5532808,17.5,12.0010004,17.5z" />
                    </g>
                    <defs>
                      <filter id="Adobe_OpacityMaskFilter" filterUnits="userSpaceOnUse" x="0" y="0" width="24"
                        height="24">
                        <feColorMatrix type="matrix" values="1 0 0 0 0  0 1 0 0 0  0 0 1 0 0  0 0 0 1 0" />
                      </filter>
                    </defs>
                    <mask maskUnits="userSpaceOnUse" x="0" y="0" width="24" height="24" id="c_1_">
                      <g class="st0">
                        <path id="b_1_" class="st1"
                          d="M12,22C6.4772,22,2,17.5228004,2,12S6.4772,2,12,2s10,4.4772,10,10S17.5228004,22,12,22z
          							 M12,20c4.4183006,0,8-3.5816994,8-8s-3.5816994-8-8-8s-8,3.5817003-8,8S7.5817003,20,12,20z M11.0010004,7h2v7h-2V7z
          							 M12.0010004,17.5c-0.5522804,0-1-0.4477196-1-1s0.4477196-1,1-1s1,0.4477196,1,1S12.5532808,17.5,12.0010004,17.5z" />
                      </g>
                    </mask>
                    <g class="st2">
                      <g>
                        <rect class="st3" width="24" height="24" />
                      </g>
                    </g>
                  </g>
                </g>
              </g>
            </g>
          </svg>