
<svg version="1.1" viewBox="0 0 20 20" xmlns="http://www.w3.org/2000/svg" xmlns:xlink="http://www.w3.org/1999/xlink">
<defs>
<path id="b" d="m12 22c-5.5228 0-10-4.4772-10-10s4.4772-10 10-10 10 4.4772 10 10-4.4772 10-10 10zm0-2c4.4183 0 8-3.5817 8-8s-3.5817-8-8-8-8 3.5817-8 8 3.5817 8 8 8zm-0.999-13h2v7h-2v-7zm1 10.5c-0.55228 0-1-0.44772-1-1s0.44772-1 1-1 1 0.44772 1 1-0.44772 1-1 1z"/>
<rect id="a" width="24" height="24"/>
</defs>
<g fill="none" fill-rule="evenodd">
<g transform="translate(-169 -247)">
<g transform="translate(149 210)">
<g transform="translate(18 35)">
<mask id="c" fill="white">
<use xlink:href="#b"/>
</mask>
<use fill="#000000" fill-rule="nonzero" xlink:href="#b"/>
<g mask="url(#c)">
<mask fill="white">
<use xlink:href="#a"/>
</mask>
<use fill="#CC0000" fill-rule="evenodd" xlink:href="#a"/>
</g>
</g>
</g>
</g>
</g>
</svg>
