<svg width="270" height="50" viewBox="0 0 270 50" fill="none" xmlns="http://www.w3.org/2000/svg">
<g clip-path="url(#clip0_1766_27495)">
<path d="M32.2088 16.0371H5.90178L0.238281 48.1155H32.3021L33.3824 41.9872H27.6205L32.2088 16.0371Z" fill="#F99D1C"/>
<path d="M35.0823 0L32.2324 16.0341H42.1656C47.7721 16.0341 50.4769 18.1764 50.4769 21.8792C50.4769 22.425 50.3603 23.2439 50.2411 23.867L49.7333 26.7895C48.8706 31.6201 46.8705 34.0766 39.9712 34.0766H34.7947L33.3827 41.9868H69.8639L77.3254 0H35.0797H35.0823Z" fill="#F15F26"/>
<path d="M44.0461 26.2463L44.3985 24.1812C44.4762 23.7125 44.515 23.3237 44.515 23.0508C44.515 21.7247 43.73 21.1016 41.9657 21.1016H37.1054L35.6934 29.1276H40.4371C43.1031 29.1276 43.6912 28.1929 44.0435 26.2437L44.0461 26.2463Z" fill="#F15F26"/>
<path d="M93.1751 32.3199L91.5113 41.7273H88.1836L92.8177 15.5078H102.086C106.88 15.5078 108.895 17.4371 108.895 20.628C108.895 21.1425 108.858 21.6141 108.735 22.2816L108.1 25.9013C107.386 30.0722 105.488 32.3199 99.1896 32.3199H93.169H93.1751ZM105.457 22.0857C105.537 21.6508 105.574 21.2956 105.574 20.9465C105.574 19.1336 104.465 18.466 101.809 18.466H95.6278L93.6866 29.4107H99.8244C103.232 29.4107 104.341 28.3083 104.816 25.6686L105.451 22.0857H105.457Z" fill="#F15F26"/>
<path d="M113.179 36.6118C113.099 37.0466 113.099 37.3222 113.099 37.4815C113.099 38.7003 113.691 39.4108 115.755 39.4108C117.819 39.4108 120.192 38.6635 122.805 37.4019L123.52 39.8027C121.061 41.144 118.528 42.124 115.317 42.124C111.435 42.124 109.895 40.3111 109.895 37.6775C109.895 37.2059 109.932 36.575 110.055 35.9075L111.201 29.4521C112.07 24.6075 114.251 22.1699 119.717 22.1699C122.928 22.1699 125.22 23.6643 125.22 26.5C125.22 29.7277 123.717 31.3446 118.288 33.1514C115.952 33.9353 115.2 34.1374 113.537 34.6458L113.179 36.6118ZM122.17 26.8491C122.17 25.5875 121.221 24.8035 119.477 24.8035C116.464 24.8035 115.083 25.9059 114.529 29.0172L114.054 31.657C115.126 31.3446 115.755 31.1425 117.622 30.5913C120.833 29.6481 122.176 28.4293 122.176 26.8491H122.17Z" fill="#F15F26"/>
<path d="M136.902 47.8696C138.566 46.3323 139.238 45.1135 139.675 42.5963L142.763 25.2759L143.237 22.5627L143.835 19.2186C144.47 15.599 146.171 13.9453 149.856 13.9453C151.242 13.9453 152.666 14.2209 153.978 14.7354L153.307 17.2159C152.197 16.8606 151.051 16.6646 150.059 16.6646C148.118 16.6646 147.403 17.3751 147.089 19.2247L146.497 22.5688H152.123L151.409 25.282H146.023L142.812 43.3496C142.257 46.3813 141.265 47.839 138.893 49.8846L136.909 47.8757L136.902 47.8696Z" fill="#F15F26"/>
<path d="M151.638 34.842L152.63 29.2503C153.462 24.5649 156.155 22.1641 161.701 22.1641C166.138 22.1641 168.436 24.6078 168.436 27.8722C168.436 28.1478 168.436 28.5827 168.319 29.2135L167.247 35.234C166.495 39.5641 164.197 42.1242 158.219 42.1242C152.716 42.1242 150.892 38.9762 151.644 34.842H151.638ZM165.065 29.2135C165.146 28.7787 165.182 28.3867 165.182 28.0682C165.182 25.9797 163.956 24.9569 161.22 24.9569C158.053 24.9569 156.389 26.4513 155.871 29.4462L154.879 34.9951C154.441 37.6349 155.076 39.3253 158.681 39.3253C162.009 39.3253 163.512 37.9105 164.03 35.0319L165.059 29.2074L165.065 29.2135Z" fill="#F15F26"/>
<path d="M208.879 26.9658C208.916 26.7269 208.959 26.4513 208.959 26.2982C208.959 25.5081 208.565 25.2325 207.61 25.2325C205.669 25.2325 202.458 26.7269 200.363 28.1049L197.947 41.7261H194.699L197.312 26.9658C197.349 26.7269 197.392 26.4513 197.392 26.2982C197.392 25.5081 196.998 25.2325 196.049 25.2325C194.108 25.2325 191.138 26.6473 188.759 28.1049L186.343 41.7261H183.096L186.46 22.7888L189.314 22.3172L189.073 25.0365C190.977 23.6952 194.934 22.1641 197.232 22.1641C199.414 22.1641 200.48 23.2665 200.64 25.0365C202.741 23.5788 206.5 22.1641 208.799 22.1641C211.215 22.1641 212.244 23.4625 212.244 25.551C212.244 25.9858 212.207 26.5738 212.084 27.2046L209.508 41.7322H206.26L208.873 26.9719L208.879 26.9658Z" fill="#F15F26"/>
<path d="M229.635 41.7337H226.942L227.059 39.4124C224.921 41.305 222.308 42.1318 219.849 42.1318C216.879 42.1318 215.77 40.5149 215.77 38.3161C215.77 37.8445 215.85 37.3301 215.93 36.8217L217.273 29.2272C218.105 24.5786 219.849 22.1777 225.95 22.1777C228.328 22.1777 230.978 22.7657 232.882 23.4762L229.635 41.7398V41.7337ZM229.277 25.436C228.248 25.1604 226.899 24.9644 225.555 24.9644C222.585 24.9644 221.118 25.8709 220.447 29.6498L219.22 36.5767C219.14 37.0483 219.06 37.5628 219.06 37.918C219.06 38.8245 219.455 39.3328 220.644 39.3328C223.06 39.3328 225.198 37.9915 227.416 35.9888L229.277 25.436Z" fill="#F15F26"/>
<path d="M253.242 25.5507C253.242 25.9856 253.199 26.5735 253.082 27.2044L250.506 41.732H247.258L249.871 26.9716C249.908 26.7328 249.951 26.4572 249.951 26.304C249.951 25.514 249.557 25.2384 248.608 25.2384C246.667 25.2384 243.696 26.6531 241.318 28.1108L238.902 41.732H235.654L239.019 22.7946L241.872 22.323L241.632 25.0424C243.536 23.7011 247.492 22.1699 249.791 22.1699C252.206 22.1699 253.236 23.4683 253.236 25.5568L253.242 25.5507Z" fill="#F15F26"/>
<path d="M258.324 39.051C258.324 38.8917 258.324 38.6161 258.404 38.1874L260.703 25.2338H257.295L257.769 22.5573H261.177L262.009 17.8352L265.337 17.4004L264.425 22.5573H269.731L269.176 25.2338H263.95L261.652 38.1445C261.615 38.3834 261.615 38.463 261.615 38.5793C261.615 39.1306 261.929 39.4062 262.724 39.4062C263.79 39.4062 264.942 39.1734 266.286 38.5793L267.038 40.821C265.374 41.6478 263.71 42.1194 261.806 42.1194C259.427 42.1194 258.318 40.7781 258.318 39.051H258.324Z" fill="#F15F26"/>
<path d="M138.961 22.1641C136.94 23.0276 134.999 24.2097 133.458 25.4714L133.815 22.3233L130.925 22.7949L127.561 41.7322H130.808L133.064 28.9746C134.678 27.7865 136.471 26.6167 138.369 25.5387L138.961 22.1641Z" fill="#F15F26"/>
<path d="M182.057 22.1641C180.035 23.0276 178.1 24.2097 176.554 25.4714L176.911 22.3233L174.021 22.7949L170.656 41.7322H173.904L176.159 28.9746C177.774 27.7865 179.567 26.6167 181.465 25.5387L182.057 22.1641Z" fill="#F15F26"/>
</g>
<defs>
<clipPath id="clip0_1766_27495">
<rect width="270" height="50" fill="white"/>
</clipPath>
</defs>
</svg>
